<?xml version="1.0" encoding="UTF-8"?>
<svg version="1.1" xmlns="http://www.w3.org/2000/svg" width="222" height="226">
<path d="M0 0 C22.99074672 18.71627151 37.12777213 44.96019258 41.3671875 74.1796875 C43.26648637 107.80382673 37.02554705 136.483645 15.3671875 163.1796875 C14.33658203 164.45972656 14.33658203 164.45972656 13.28515625 165.765625 C0.24085401 181.10901576 -17.62451694 191.90492128 -36.6328125 198.1796875 C-37.58921631 198.49728027 -37.58921631 198.49728027 -38.56494141 198.82128906 C-64.82193904 207.06620845 -95.44267402 203.60890183 -119.79931641 191.15966797 C-145.43613885 177.45711067 -166.47669894 154.79473953 -175.40380859 126.75830078 C-184.72202037 94.76188342 -182.53026748 63.17272465 -167.3203125 33.4921875 C-163.65917194 26.92627388 -159.3641316 21.01150018 -154.6328125 15.1796875 C-153.94574219 14.32632813 -153.25867188 13.47296875 -152.55078125 12.59375 C-139.50647901 -2.74964076 -121.64110806 -13.54554628 -102.6328125 -19.8203125 C-101.99520996 -20.03204102 -101.35760742 -20.24376953 -100.70068359 -20.46191406 C-66.07526696 -31.33458781 -27.96238377 -22.04410265 0 0 Z " fill="#DC0133" transform="translate(180.6328125,23.8203125)"/>
<path d="M0 0 C9.46661966 7.81367071 16.77749769 16.53214988 23.44824219 26.77392578 C23.84962402 27.38333008 24.25100586 27.99273437 24.66455078 28.62060547 C27.44938552 33.10164688 27.44938552 33.10164688 27.44433594 36.07080078 C26.12898838 38.3197872 24.86854315 38.94948484 22.51074219 40.02392578 C21.80046875 40.35908203 21.09019531 40.69423828 20.35839844 41.03955078 C18.44824219 41.77392578 18.44824219 41.77392578 16.44824219 41.77392578 C16.13113281 41.13068359 15.81402344 40.48744141 15.48730469 39.82470703 C3.86143842 17.31163451 -14.02655626 2.62314512 -38.12207031 -5.41748047 C-60.08085737 -12.05926618 -84.47688462 -8.96404869 -104.55175781 1.77392578 C-117.12459238 8.93030454 -127.96431378 18.39847635 -135.55175781 30.77392578 C-136.41994141 32.18351562 -136.41994141 32.18351562 -137.30566406 33.62158203 C-138.74346747 35.99345726 -140.15868206 38.37559024 -141.55175781 40.77392578 C-146.13858173 40.22787531 -149.47535796 38.90347361 -153.55175781 36.77392578 C-142.09661614 10.9300086 -120.90662684 -6.33336947 -94.98925781 -16.53857422 C-63.06679679 -27.1636537 -26.38872526 -21.0646842 0 0 Z " fill="#E4DFE0" transform="translate(173.5517578125,34.22607421875)"/>
<path d="M0 0 C0.47308594 0.88300781 0.94617187 1.76601562 1.43359375 2.67578125 C13.55375199 24.86499403 31.65249842 40.55389168 55.98828125 47.90234375 C78.17133528 53.55889219 102.8137783 50.32366031 122.6640625 38.9609375 C138.43777185 29.4660005 148.917363 16.86021082 158 1 C162.58682392 1.54605047 165.92360014 2.87045218 170 5 C158.3047342 31.38566066 136.98123409 47.82934127 110.7109375 58.3125 C86.96029821 66.83515684 58.72819505 64.64350506 36 54 C16.2446768 44.38010619 -2.60580537 27.79231472 -11 7 C-10 4 -10 4 -8.22265625 2.83203125 C-7.50980469 2.49558594 -6.79695313 2.15914062 -6.0625 1.8125 C-5.35222656 1.46832031 -4.64195313 1.12414062 -3.91015625 0.76953125 C-2 0 -2 0 0 0 Z " fill="#E4DFE1" transform="translate(32,150)"/>
<path d="M0 0 C2.97 0 5.94 0 9 0 C9.33 6.27 9.66 12.54 10 19 C11.69125 18.938125 13.3825 18.87625 15.125 18.8125 C19.87151115 18.82468616 23.02613225 19.1892155 27 22 C31.52161993 26.64722049 33.07195509 31.3033539 33.375 37.6875 C33.22438651 43.54370675 31.91669869 48.89366374 29 54 C26.70559816 56.02357044 24.8899809 56.82260037 22 58 C21.01 58.495 21.01 58.495 20 59 C13.18243897 59.50111987 6.53616337 59.08245205 0 57 C-1.69295345 55.30704655 -1.12749729 53.17103516 -1.12939453 50.85351562 C-1.13412277 49.20675842 -1.13412277 49.20675842 -1.13894653 47.5267334 C-1.1369223 46.33197388 -1.13489807 45.13721436 -1.1328125 43.90625 C-1.13376923 42.68925415 -1.13472595 41.4722583 -1.13571167 40.21838379 C-1.13639372 37.63924101 -1.13453772 35.06009653 -1.13037109 32.48095703 C-1.12502322 28.51721364 -1.13031529 24.55358358 -1.13671875 20.58984375 C-1.13605797 18.09114558 -1.13477682 15.59244748 -1.1328125 13.09375 C-1.13483673 11.89899048 -1.13686096 10.70423096 -1.13894653 9.4732666 C-1.13579437 8.37542847 -1.13264221 7.27759033 -1.12939453 6.14648438 C-1.12859894 5.1746521 -1.12780334 4.20281982 -1.12698364 3.20153809 C-1 1 -1 1 0 0 Z " fill="#E4DEDF" transform="translate(78,77)"/>
<path d="M0 0 C2.95835028 1.80073496 4.16087556 2.79274648 5.875 5.75 C6.26318359 8.92626953 6.26318359 8.92626953 6.2734375 12.6328125 C6.27630768 13.28829071 6.27917786 13.94376892 6.28213501 14.61911011 C6.28417005 15.99917469 6.27867932 17.37926848 6.26611328 18.75927734 C6.24999752 20.87532533 6.2660048 22.98947853 6.28515625 25.10546875 C6.28317473 26.44792089 6.27933293 27.79037185 6.2734375 29.1328125 C6.27005371 30.35371582 6.26666992 31.57461914 6.26318359 32.83251953 C6.13508301 33.79528809 6.00698242 34.75805664 5.875 35.75 C-0.51382196 40.00921464 -8.70036772 39.37298639 -16.125 38.75 C-19.64421761 37.64379642 -22.23497265 36.15514592 -24.265625 32.94921875 C-25.93792955 28.66963938 -25.90330309 24.24021011 -25.125 19.75 C-22.84338915 16.44634264 -19.90788359 15.0109612 -16.125 13.75 C-14.06354893 13.681009 -11.99998599 13.66532273 -9.9375 13.6875 C-8.30748047 13.70103516 -8.30748047 13.70103516 -6.64453125 13.71484375 C-5.81308594 13.72644531 -4.98164063 13.73804687 -4.125 13.75 C-4.785 12.1 -5.445 10.45 -6.125 8.75 C-11.405 8.75 -16.685 8.75 -22.125 8.75 C-22.125 6.11 -22.125 3.47 -22.125 0.75 C-15.49252009 -2.34433542 -6.88115511 -2.69070809 0 0 Z " fill="#E4DEDF" transform="translate(177.125,97.25)"/>
<path d="M0 0 C2.96009691 1.80179812 4.16816885 2.78522527 5.875 5.75 C6.21557617 8.95800781 6.21557617 8.95800781 6.16796875 12.703125 C6.16372391 13.36334656 6.15947906 14.02356812 6.15510559 14.70379639 C6.13837435 16.80295391 6.10073551 18.90113496 6.0625 21 C6.04744584 22.42706942 6.03375871 23.85415396 6.02148438 25.28125 C5.98849001 28.77114817 5.93674743 32.2604787 5.875 35.75 C-2.32268525 39.08914334 -10.03100191 40.35234745 -18.6875 37.5625 C-22.50828664 35.54790341 -23.74160496 34.81372293 -25.125 30.75 C-25.62346792 27.31170422 -25.73405794 24.17877062 -25.125 20.75 C-22.58025722 17.35700963 -20.03985438 15.30767093 -16.125 13.75 C-13.109375 13.5546875 -13.109375 13.5546875 -9.875 13.625 C-8.79734375 13.64304687 -7.7196875 13.66109375 -6.609375 13.6796875 C-5.37960938 13.71449219 -5.37960938 13.71449219 -4.125 13.75 C-4.785 12.1 -5.445 10.45 -6.125 8.75 C-11.405 8.75 -16.685 8.75 -22.125 8.75 C-22.125 6.11 -22.125 3.47 -22.125 0.75 C-15.49252009 -2.34433542 -6.88115511 -2.69070809 0 0 Z " fill="#E4DDDF" transform="translate(62.125,97.25)"/>
<path d="M0 0 C1.1328125 2.9140625 1.1328125 2.9140625 2.125 6.625 C2.45757812 7.83414063 2.79015625 9.04328125 3.1328125 10.2890625 C7.36638118 28.40568524 6.50825756 49.83826843 -1 67 C-5.12751449 66.39301257 -8.3321148 64.96189209 -12 63 C-11.87882813 62.42894531 -11.75765625 61.85789063 -11.6328125 61.26953125 C-11.06400271 58.51736698 -10.5278139 55.76032406 -10 53 C-9.71382812 51.53433594 -9.71382812 51.53433594 -9.421875 50.0390625 C-7.15317464 37.17229047 -7.06635379 24.83667523 -10.24609375 12.1484375 C-11.05260153 8.78032728 -11.55468392 5.43282491 -12 2 C-10.56656 1.46809459 -9.12804633 0.94984742 -7.6875 0.4375 C-6.48673828 0.00244141 -6.48673828 0.00244141 -5.26171875 -0.44140625 C-3 -1 -3 -1 0 0 Z " fill="#E4DEE0" transform="translate(206,80)"/>
<path d="M0 0 C1.31226563 -0.00515625 2.62453125 -0.0103125 3.9765625 -0.015625 C7.375 0.25 7.375 0.25 10.375 2.25 C10.375 4.89 10.375 7.53 10.375 10.25 C5.095 10.25 -0.185 10.25 -5.625 10.25 C-5.625 11.24 -5.625 12.23 -5.625 13.25 C-4.82835938 13.42015625 -4.03171875 13.5903125 -3.2109375 13.765625 C10.07834928 16.80502392 10.07834928 16.80502392 14.375 23.25 C14.97862041 27.43614674 14.79198873 31.18436214 13.25 35.125 C10.11852439 38.67400569 7.35346773 40.07191008 2.59765625 40.5 C-3.48863155 40.62280026 -8.81343475 40.03817392 -14.625 38.25 C-14.955 35.28 -15.285 32.31 -15.625 29.25 C-14.51125 29.415 -13.3975 29.58 -12.25 29.75 C-7.36989662 30.37094505 -2.53638052 30.34057874 2.375 30.25 C2.705 28.6 3.035 26.95 3.375 25.25 C2.05435547 25.08564453 2.05435547 25.08564453 0.70703125 24.91796875 C-1.03513672 24.68013672 -1.03513672 24.68013672 -2.8125 24.4375 C-3.96105469 24.28667969 -5.10960938 24.13585937 -6.29296875 23.98046875 C-10.46135673 23.06664864 -13.47356628 21.95621542 -15.9140625 18.33984375 C-17.17361709 14.63730691 -17.18216667 11.1020165 -16.625 7.25 C-12.71376754 0.44155831 -7.39299153 -0.02916367 0 0 Z " fill="#E4DBDD" transform="translate(132.625,95.75)"/>
<path d="M0 0 C4.13347071 0.47239665 7.35761877 2.05174957 11 4 C10.46508728 7.47693265 9.80456733 10.89008674 9 14.3125 C6.07645731 27.4684421 6.01623777 40.67458805 9.24609375 53.78125 C10.04070594 57.17379115 10.55084473 60.54630119 11 64 C9.5437455 64.67119549 8.08492133 65.33681807 6.625 66 C5.81289063 66.37125 5.00078125 66.7425 4.1640625 67.125 C2 68 2 68 0 68 C-8.51512064 46.62952733 -8.28898443 22.82530194 -1 1 C-0.67 0.67 -0.34 0.34 0 0 Z " fill="#E4DFE0" transform="translate(17,79)"/>
<path d="M0 0 C9 0 9 0 11.5625 1.8125 C13.69376823 6.53835565 13.65112835 10.89821784 13 16 C11.62747293 19.11937969 11.020457 20.4897715 8 22 C5.36 22 2.72 22 0 22 C0 14.74 0 7.48 0 0 Z " fill="#DC0737" transform="translate(87,105)"/>
<path d="M0 0 C1.8871875 0.061875 1.8871875 0.061875 3.8125 0.125 C3.8125 3.095 3.8125 6.065 3.8125 9.125 C-3.0234375 9.3203125 -3.0234375 9.3203125 -5.1875 9.125 C-7.1875 7.125 -7.1875 7.125 -7.5 4.625 C-7.396875 3.8 -7.29375 2.975 -7.1875 2.125 C-4.09861478 0.06574319 -3.47814073 -0.1140374 0 0 Z " fill="#DC0E3D" transform="translate(169.1875,117.875)"/>
<path d="M0 0 C1.37478516 0.01740234 1.37478516 0.01740234 2.77734375 0.03515625 C3.69644531 0.04417969 4.61554687 0.05320312 5.5625 0.0625 C6.27277344 0.07410156 6.98304687 0.08570312 7.71484375 0.09765625 C7.71484375 2.73765625 7.71484375 5.37765625 7.71484375 8.09765625 C6.25691491 8.15165361 4.79841663 8.19044802 3.33984375 8.22265625 C2.52773438 8.24585937 1.715625 8.2690625 0.87890625 8.29296875 C-1.28515625 8.09765625 -1.28515625 8.09765625 -3.28515625 6.09765625 C-3.47265625 3.53515625 -3.47265625 3.53515625 -3.28515625 1.09765625 C-2.28515625 0.09765625 -2.28515625 0.09765625 0 0 Z " fill="#DC0536" transform="translate(50.28515625,118.90234375)"/>
</svg>
